<svg xmlns="http://www.w3.org/2000/svg" xmlns:xlink="http://www.w3.org/1999/xlink" width="500" zoomAndPan="magnify" viewBox="0 0 375 374.999991" height="500" preserveAspectRatio="xMidYMid meet" version="1.0"><defs><g/></defs><g fill="#e6e6e6" fill-opacity="1"><g transform="translate(82.991814, 199.520143)"><g><path d="M 14.640625 0 L 0.53125 0 L 5.5625 -23.75 L 19.65625 -23.75 L 18.59375 -18.59375 L 10.84375 -18.59375 L 10.09375 -14.859375 L 17.296875 -14.859375 L 16.125 -9.71875 L 8.921875 -9.71875 L 7.984375 -5.234375 L 15.734375 -5.234375 Z M 14.640625 0 "/></g></g></g><g fill="#e6e6e6" fill-opacity="1"><g transform="translate(101.683042, 199.520143)"><g><path d="M 0.53125 0 L 5.5625 -23.75 L 11.90625 -23.75 L 7.984375 -5.1875 L 15.734375 -5.1875 L 14.640625 0 Z M 0.53125 0 "/></g></g></g><g fill="#e6e6e6" fill-opacity="1"><g transform="translate(119.205055, 199.520143)"><g><path d="M 0.5 0 L 5.515625 -23.75 L 11.96875 -23.75 L 6.953125 0 Z M 0.5 0 "/></g></g></g><g fill="#e6e6e6" fill-opacity="1"><g transform="translate(131.010896, 199.520143)"><g><path d="M 10.1875 0 L 3.828125 0 L 7.6875 -18.5 L 2.53125 -18.5 L 3.65625 -23.75 L 20.359375 -23.75 L 19.203125 -18.5 L 14.03125 -18.5 Z M 10.1875 0 "/></g></g></g><g fill="#e6e6e6" fill-opacity="1"><g transform="translate(149.361103, 199.520143)"><g><path d="M 14.640625 0 L 0.53125 0 L 5.5625 -23.75 L 19.65625 -23.75 L 18.59375 -18.59375 L 10.84375 -18.59375 L 10.09375 -14.859375 L 17.296875 -14.859375 L 16.125 -9.71875 L 8.921875 -9.71875 L 7.984375 -5.234375 L 15.734375 -5.234375 Z M 14.640625 0 "/></g></g></g><g fill="#bb0102" fill-opacity="1"><g transform="translate(168.404216, 200.249987)"><g><path d="M 9.546875 0 L 9.546875 -17.03125 L 9.421875 -17.03125 C 8.691406 -12.519531 8.226562 -9.75 8.03125 -8.71875 L 6.1875 0 L 0.53125 0 L 5.5625 -23.75 L 13.96875 -23.75 L 13.96875 -6.890625 L 14.09375 -6.890625 L 21.859375 -23.75 L 30.40625 -23.75 L 25.328125 0 L 19.625 0 L 21.515625 -8.921875 C 22.054688 -11.390625 22.644531 -13.75 23.28125 -16 L 23.515625 -17.03125 L 23.390625 -17.03125 L 15.5625 0 Z M 9.546875 0 "/></g></g></g><g fill="#bb0102" fill-opacity="1"><g transform="translate(198.652196, 200.249987)"><g><path d="M 14.5625 -24.125 C 17.382812 -24.125 19.578125 -23.316406 21.140625 -21.703125 C 22.703125 -20.097656 23.484375 -17.851562 23.484375 -14.96875 C 23.484375 -12.09375 22.941406 -9.460938 21.859375 -7.078125 C 20.785156 -4.691406 19.300781 -2.859375 17.40625 -1.578125 C 15.507812 -0.304688 13.3125 0.328125 10.8125 0.328125 C 7.90625 0.328125 5.65625 -0.476562 4.0625 -2.09375 C 2.476562 -3.707031 1.6875 -5.945312 1.6875 -8.8125 C 1.6875 -11.6875 2.242188 -14.328125 3.359375 -16.734375 C 4.472656 -19.140625 5.988281 -20.972656 7.90625 -22.234375 C 9.832031 -23.492188 12.050781 -24.125 14.5625 -24.125 Z M 17.078125 -14.90625 C 17.078125 -16.144531 16.816406 -17.113281 16.296875 -17.8125 C 15.773438 -18.507812 15.019531 -18.859375 14.03125 -18.859375 C 12.957031 -18.859375 11.972656 -18.398438 11.078125 -17.484375 C 10.179688 -16.578125 9.460938 -15.328125 8.921875 -13.734375 C 8.390625 -12.148438 8.125 -10.523438 8.125 -8.859375 C 8.125 -6.234375 9.207031 -4.921875 11.375 -4.921875 C 12.394531 -4.921875 13.347656 -5.367188 14.234375 -6.265625 C 15.117188 -7.171875 15.8125 -8.382812 16.3125 -9.90625 C 16.820312 -11.4375 17.078125 -13.101562 17.078125 -14.90625 Z M 17.078125 -14.90625 "/></g></g></g><g fill="#bb0102" fill-opacity="1"><g transform="translate(223.165737, 200.249987)"><g><path d="M 10.1875 0 L 3.828125 0 L 7.6875 -18.5 L 2.53125 -18.5 L 3.65625 -23.75 L 20.359375 -23.75 L 19.203125 -18.5 L 14.03125 -18.5 Z M 10.1875 0 "/></g></g></g><g fill="#bb0102" fill-opacity="1"><g transform="translate(241.52246, 200.249987)"><g><path d="M 14.5625 -24.125 C 17.382812 -24.125 19.578125 -23.316406 21.140625 -21.703125 C 22.703125 -20.097656 23.484375 -17.851562 23.484375 -14.96875 C 23.484375 -12.09375 22.941406 -9.460938 21.859375 -7.078125 C 20.785156 -4.691406 19.300781 -2.859375 17.40625 -1.578125 C 15.507812 -0.304688 13.3125 0.328125 10.8125 0.328125 C 7.90625 0.328125 5.65625 -0.476562 4.0625 -2.09375 C 2.476562 -3.707031 1.6875 -5.945312 1.6875 -8.8125 C 1.6875 -11.6875 2.242188 -14.328125 3.359375 -16.734375 C 4.472656 -19.140625 5.988281 -20.972656 7.90625 -22.234375 C 9.832031 -23.492188 12.050781 -24.125 14.5625 -24.125 Z M 17.078125 -14.90625 C 17.078125 -16.144531 16.816406 -17.113281 16.296875 -17.8125 C 15.773438 -18.507812 15.019531 -18.859375 14.03125 -18.859375 C 12.957031 -18.859375 11.972656 -18.398438 11.078125 -17.484375 C 10.179688 -16.578125 9.460938 -15.328125 8.921875 -13.734375 C 8.390625 -12.148438 8.125 -10.523438 8.125 -8.859375 C 8.125 -6.234375 9.207031 -4.921875 11.375 -4.921875 C 12.394531 -4.921875 13.347656 -5.367188 14.234375 -6.265625 C 15.117188 -7.171875 15.8125 -8.382812 16.3125 -9.90625 C 16.820312 -11.4375 17.078125 -13.101562 17.078125 -14.90625 Z M 17.078125 -14.90625 "/></g></g></g><g fill="#bb0102" fill-opacity="1"><g transform="translate(266.036, 200.249987)"><g><path d="M 8.71875 -8.640625 L 6.890625 0 L 0.53125 0 L 5.5625 -23.75 L 11.84375 -23.75 C 14.570312 -23.75 16.660156 -23.207031 18.109375 -22.125 C 19.554688 -21.039062 20.28125 -19.410156 20.28125 -17.234375 C 20.28125 -15.546875 19.894531 -14.070312 19.125 -12.8125 C 18.363281 -11.5625 17.222656 -10.601562 15.703125 -9.9375 L 19.34375 -1.5625 L 20 0 L 13.078125 0 L 9.90625 -8.640625 Z M 9.75 -13.46875 L 10.578125 -13.46875 C 11.609375 -13.46875 12.425781 -13.757812 13.03125 -14.34375 C 13.632812 -14.9375 13.9375 -15.765625 13.9375 -16.828125 C 13.9375 -17.492188 13.75 -18.003906 13.375 -18.359375 C 13 -18.710938 12.457031 -18.890625 11.75 -18.890625 L 10.875 -18.890625 Z M 9.75 -13.46875 "/></g></g></g><g fill="#bb0102" fill-opacity="1"><g transform="translate(287.657951, 200.249987)"><g><path d="M 15.875 -7.296875 C 15.875 -4.890625 15.078125 -3.015625 13.484375 -1.671875 C 11.890625 -0.335938 9.671875 0.328125 6.828125 0.328125 C 5.628906 0.328125 4.5 0.195312 3.4375 -0.0625 C 2.382812 -0.332031 1.472656 -0.722656 0.703125 -1.234375 L 0.703125 -6.921875 C 1.609375 -6.347656 2.648438 -5.863281 3.828125 -5.46875 C 5.003906 -5.082031 6.066406 -4.890625 7.015625 -4.890625 C 7.816406 -4.890625 8.421875 -5.054688 8.828125 -5.390625 C 9.242188 -5.722656 9.453125 -6.203125 9.453125 -6.828125 C 9.453125 -7.117188 9.382812 -7.390625 9.25 -7.640625 C 9.125 -7.898438 8.941406 -8.15625 8.703125 -8.40625 C 8.460938 -8.65625 7.828125 -9.21875 6.796875 -10.09375 C 5.523438 -11.101562 4.601562 -12.140625 4.03125 -13.203125 C 3.457031 -14.265625 3.171875 -15.429688 3.171875 -16.703125 C 3.171875 -18.117188 3.523438 -19.390625 4.234375 -20.515625 C 4.941406 -21.648438 5.941406 -22.53125 7.234375 -23.15625 C 8.523438 -23.78125 9.972656 -24.09375 11.578125 -24.09375 C 14.171875 -24.09375 16.5 -23.507812 18.5625 -22.34375 L 16.375 -17.53125 C 14.519531 -18.476562 12.941406 -18.953125 11.640625 -18.953125 C 10.953125 -18.953125 10.421875 -18.800781 10.046875 -18.5 C 9.671875 -18.195312 9.484375 -17.753906 9.484375 -17.171875 C 9.484375 -16.640625 9.664062 -16.144531 10.03125 -15.6875 C 10.394531 -15.226562 11.082031 -14.613281 12.09375 -13.84375 C 13.375 -12.894531 14.320312 -11.898438 14.9375 -10.859375 C 15.5625 -9.828125 15.875 -8.640625 15.875 -7.296875 Z M 15.875 -7.296875 "/></g></g></g></svg>