<svg xmlns="http://www.w3.org/2000/svg" xmlns:xlink="http://www.w3.org/1999/xlink" width="500" zoomAndPan="magnify" viewBox="0 0 375 374.999991" height="500" preserveAspectRatio="xMidYMid meet" version="1.0"><defs><g/></defs><g fill="#e6e6e6" fill-opacity="1"><g transform="translate(82.991814, 199.520143)"><g><path d="M 14.640625 0 L 0.53125 0 L 5.5625 -23.75 L 19.65625 -23.75 L 18.59375 -18.59375 L 10.84375 -18.59375 L 10.09375 -14.859375 L 17.296875 -14.859375 L 16.125 -9.71875 L 8.921875 -9.71875 L 7.984375 -5.234375 L 15.734375 -5.234375 Z M 14.640625 0 "/></g></g></g><g fill="#e6e6e6" fill-opacity="1"><g transform="translate(101.683042, 199.520143)"><g><path d="M 0.53125 0 L 5.5625 -23.75 L 11.90625 -23.75 L 7.984375 -5.1875 L 15.734375 -5.1875 L 14.640625 0 Z M 0.53125 0 "/></g></g></g><g fill="#e6e6e6" fill-opacity="1"><g transform="translate(119.205055, 199.520143)"><g><path d="M 0.5 0 L 5.515625 -23.75 L 11.96875 -23.75 L 6.953125 0 Z M 0.5 0 "/></g></g></g><g fill="#e6e6e6" fill-opacity="1"><g transform="translate(131.010896, 199.520143)"><g><path d="M 10.1875 0 L 3.828125 0 L 7.6875 -18.5 L 2.53125 -18.5 L 3.65625 -23.75 L 20.359375 -23.75 L 19.203125 -18.5 L 14.03125 -18.5 Z M 10.1875 0 "/></g></g></g><g fill="#e6e6e6" fill-opacity="1"><g transform="translate(149.361103, 199.520143)"><g><path d="M 14.640625 0 L 0.53125 0 L 5.5625 -23.75 L 19.65625 -23.75 L 18.59375 -18.59375 L 10.84375 -18.59375 L 10.09375 -14.859375 L 17.296875 -14.859375 L 16.125 -9.71875 L 8.921875 -9.71875 L 7.984375 -5.234375 L 15.734375 -5.234375 Z M 14.640625 0 "/></g></g></g><g fill="#bb0102" fill-opacity="1"><g transform="translate(168.404216, 200.249987)"><g><path d="M 9.546875 0 L 9.546875 -17.03125 L 9.421875 -17.03125 C 8.691406 -12.519531 8.226562 -9.75 8.03125 -8.71875 L 6.1875 0 L 0.53125 0 L 5.5625 -23.75 L 13.96875 -23.75 L 13.96875 -6.890625 L 14.09375 -6.890625 L 21.859375 -23.75 L 30.40625 -23.75 L 25.328125 0 L 19.625 0 L 21.515625 -8.921875 C 22.054688 -11.390625 22.644531 -13.75 23.28125 -16 L 23.515625 -17.03125 L 23.390625 -17.03125 L 15.5625 0 Z M 9.546875 0 "/></g></g></g><g fill="#bb0102" fill-opacity="1"><g transform="translate(198.652196, 200.249987)"><g><path d="M 14.5625 -24.125 C 17.382812 -24.125 19.578125 -23.316406 21.140625 -21.703125 C 22.703125 -20.097656 23.484375 -17.851562 23.484375 -14.96875 C 23.484375 -12.09375 22.941406 -9.460938 21.859375 -7.078125 C 20.785156 -4.691406 19.300781 -2.859375 17.40625 -1.578125 C 15.507812 -0.304688 13.3125 0.328125 10.8125 0.328125 C 7.90625 0.328125 5.65625 -0.476562 4.0625 -2.09375 C 2.476562 -3.707031 1.6875 -5.945312 1.6875 -8.8125 C 1.6875 -11.6875 2.242188 -14.328125 3.359375 -16.734375 C 4.472656 -19.140625 5.988281 -20.972656 7.90625 -22.234375 C 9.832031 -23.492188 12.050781 -24.125 14.5625 -24.125 Z M 17.078125 -14.90625 C 17.078125 -16.144531 16.816406 -17.113281 16.296875 -17.8125 C 15.773438 -18.507812 15.019531 -18.859375 14.03125 -18.859375 C 12.957031 -18.859375 11.972656 -18.398438 11.078125 -17.484375 C 10.179688 -16.578125 9.460938 -15.328125 8.921875 -13.734375 C 8.390625 -12.148438 8.125 -10.523438 8.125 -8.859375 C 8.125 -6.234375 9.207031 -4.921875 11.375 -4.921875 C 12.394531 -4.921875 13.347656 -5.367188 14.234375 -6.265625 C 15.117188 -7.171875 15.8125 -8.382812 16.3125 -9.90625 C 16.820312 -11.4375 17.078125 -13.101562 17.078125 -14.90625 Z M 17.078125 -14.90625 "/></g></g></g><g fill="#bb0102" fill-opacity="1"><g transform="translate(223.165737, 200.249987)"><g><path d="M 10.1875 0 L 3.828125 0 L 7.6875 -18.5 L 2.53125 -18.5 L 3.65625 -23.75 L 20.359375 -23.75 L 19.203125 -18.5 L 14.03125 -18.5 Z M 10.1875 0 "/></g></g></g><g fill="#bb0102" fill-opacity="1"><g transform="translate(241.52246, 200.249987)"><g><path d="M 14.5625 -24.125 C 17.382812 -24.125 19.578125 -23.316406 21.140625 -21.703125 C 22.703125 -20.097656 23.484375 -17.851562 23.484375 -14.96875 C 23.484375 -12.09375 22.941406 -9.460938 21.859375 -7.078125 C 20.785156 -4.691406 19.300781 -2.859375 17.40625 -1.578125 C 15.507812 -0.304688 13.3125 0.328125 10.8125 0.328125 C 7.90625 0.328125 5.65625 -0.476562 4.0625 -2.09375 C 2.476562 -3.707031 1.6875 -5.945312 1.6875 -8.8125 C 1.6875 -11.6875 2.242188 -14.328125 3.359375 -16.734375 C 4.472656 -19.140625 5.988281 -20.972656 7.90625 -22.234375 C 9.832031 -23.492188 12.050781 -24.125 14.5625 -24.125 Z M 17.078125 -14.90625 C 17.078125 -16.144531 16.816406 -17.113281 16.296875 -17.8125 C 15.773438 -18.507812 15.019531 -18.859375 14.03125 -18.859375 C 12.957031 -18.859375 11.972656 -18.398438 11.078125 -17.484375 C 10.179688 -16.578125 9.460938 -15.328125 8.921875 -13.734375 C 8.390625 -12.148438 8.125 -10.523438 8.125 -8.859375 C 8.125 -6.234375 9.207031 -4.921875 11.375 -4.921875 C 12.394531 -4.921875 13.347656 -5.367188 14.234375 -6.265625 C 15.117188 -7.171875 15.8125 -8.382812 16.3125 -9.90625 C 16.820312 -11.4375 17.078125 -13.101562 17.078125 -14.90625 Z M 17.078125 -14.90625 "/></g></g></g><g fill="#bb0102" fill-opacity="1"><g transform="translate(266.036, 200.249987)"><g><path d="M 8.71875 -8.640625 L 6.890625 0 L 0.53125 0 L 5.5625 -23.75 L 11.84375 -23.75 C 14.570312 -23.75 16.660156 -23.207031 18.109375 -22.125 C 19.554688 -21.039062 20.28125 -19.410156 20.28125 -17.234375 C 20.28125 -15.546875 19.894531 -14.070312 19.125 -12.8125 C 18.363281 -11.5625 17.222656 -10.601562 15.703125 -9.9375 L 19.34375 -1.5625 L 20 0 L 13.078125 0 L 9.90625 -8.640625 Z M 9.75 -13.46875 L 10.578125 -13.46875 C 11.609375 -13.46875 12.425781 -13.757812 13.03125 -14.34375 C 13.632812 -14.9375 13.9375 -15.765625 13.9375 -16.828125 C 13.9375 -17.492188 13.75 -18.003906 13.375 -18.359375 C 13 -18.710938 12.457031 -18.890625 11.75 -18.890625 L 10.875 -18.890625 Z M 9.75 -13.46875 "/></g></g></g><g fill="#bb0102" fill-opacity="1"><g transform="translate(287.657951, 200.249987)"><g><path d="M 15.875 -7.296875 C 15.875 -4.890625 15.078125 -3.015625 13.484375 -1.671875 C 11.890625 -0.335938 9.671875 0.328125 6.828125 0.328125 C 5.628906 0.328125 4.5 0.195312 3.4375 -0.0625 C 2.382812 -0.332031 1.472656 -0.722656 0.703125 -1.234375 L 0.703125 -6.921875 C 1.609375 -6.347656 2.648438 -5.863281 3.828125 -5.46875 C 5.003906 -5.082031 6.066406 -4.890625 7.015625 -4.890625 C 7.816406 -4.890625 8.421875 -5.054688 8.828125 -5.390625 C 9.242188 -5.722656 9.453125 -6.203125 9.453125 -6.828125 C 9.453125 -7.117188 9.382812 -7.390625 9.25 -7.640625 C 9.125 -7.898438 8.941406 -8.15625 8.703125 -8.40625 C 8.460938 -8.65625 7.828125 -9.21875 6.796875 -10.09375 C 5.523438 -11.101562 4.601562 -12.140625 4.03125 -13.203125 C 3.457031 -14.265625 3.171875 -15.429688 3.171875 -16.703125 C 3.171875 -18.117188 3.523438 -19.390625 4.234375 -20.515625 C 4.941406 -21.648438 5.941406 -22.53125 7.234375 -23.15625 C 8.523438 -23.78125 9.972656 -24.09375 11.578125 -24.09375 C 14.171875 -24.09375 16.5 -23.507812 18.5625 -22.34375 L 16.375 -17.53125 C 14.519531 -18.476562 12.941406 -18.953125 11.640625 -18.953125 C 10.953125 -18.953125 10.421875 -18.800781 10.046875 -18.5 C 9.671875 -18.195312 9.484375 -17.753906 9.484375 -17.171875 C 9.484375 -16.640625 9.664062 -16.144531 10.03125 -15.6875 C 10.394531 -15.226562 11.082031 -14.613281 12.09375 -13.84375 C 13.375 -12.894531 14.320312 -11.898438 14.9375 -10.859375 C 15.5625 -9.828125 15.875 -8.640625 15.875 -7.296875 Z M 15.875 -7.296875 "/></g></g></g><g fill="#e6e6e6" fill-opacity="1"><g transform="translate(41.812502, 222.295591)"><g><path d="M 4.875 -7.625 L 4.8125 -7.8125 C 5.382812 -9.113281 6.0625 -10.378906 6.84375 -11.609375 L 9.140625 -11.609375 C 8.878906 -11.003906 8.613281 -10.320312 8.34375 -9.5625 L 7.640625 -7.625 Z M 0.9375 -7.625 L 0.859375 -7.8125 C 1.410156 -9.050781 2.097656 -10.316406 2.921875 -11.609375 L 5.203125 -11.609375 C 5.066406 -11.285156 4.925781 -10.9375 4.78125 -10.5625 C 4.632812 -10.195312 4.273438 -9.21875 3.703125 -7.625 Z M 0.9375 -7.625 "/></g></g></g><g fill="#e6e6e6" fill-opacity="1"><g transform="translate(49.730874, 222.295591)"><g><path d="M 7.15625 0 L 0.265625 0 L 2.71875 -11.609375 L 9.609375 -11.609375 L 9.09375 -9.09375 L 5.3125 -9.09375 L 4.9375 -7.265625 L 8.453125 -7.265625 L 7.890625 -4.75 L 4.359375 -4.75 L 3.90625 -2.5625 L 7.703125 -2.5625 Z M 7.15625 0 "/></g></g></g><g fill="#e6e6e6" fill-opacity="1"><g transform="translate(58.872346, 222.295591)"><g><path d="M 0.265625 0 L 2.71875 -11.609375 L 5.828125 -11.609375 L 3.90625 -2.53125 L 7.703125 -2.53125 L 7.15625 0 Z M 0.265625 0 "/></g></g></g><g fill="#e6e6e6" fill-opacity="1"><g transform="translate(67.441979, 222.295591)"><g><path d="M 7.15625 0 L 0.265625 0 L 2.71875 -11.609375 L 9.609375 -11.609375 L 9.09375 -9.09375 L 5.3125 -9.09375 L 4.9375 -7.265625 L 8.453125 -7.265625 L 7.890625 -4.75 L 4.359375 -4.75 L 3.90625 -2.5625 L 7.703125 -2.5625 Z M 7.15625 0 "/></g></g></g><g fill="#e6e6e6" fill-opacity="1"><g transform="translate(76.58345, 222.295591)"><g><path d="M 7.953125 -11.609375 L 11.234375 -11.609375 L 5.484375 0 L 2.015625 0 L 1.1875 -11.609375 L 4.21875 -11.609375 L 4.4375 -5.25 L 4.4375 -4.84375 C 4.4375 -4.082031 4.394531 -3.40625 4.3125 -2.8125 L 4.375 -2.8125 C 4.445312 -3.144531 4.5625 -3.5625 4.71875 -4.0625 C 4.882812 -4.5625 5.035156 -4.945312 5.171875 -5.21875 Z M 7.953125 -11.609375 "/></g></g></g><g fill="#e6e6e6" fill-opacity="1"><g transform="translate(86.62239, 222.295591)"><g><path d="M 6.8125 -2.171875 L 3.25 -2.171875 L 2.265625 0 L -0.96875 0 L 4.953125 -11.609375 L 8.9375 -11.609375 L 9.921875 0 L 6.890625 0 Z M 4.390625 -4.65625 L 6.71875 -4.65625 L 6.578125 -8.015625 L 6.5625 -8.703125 C 6.5625 -9.097656 6.570312 -9.445312 6.59375 -9.75 C 6.46875 -9.289062 6.304688 -8.847656 6.109375 -8.421875 Z M 4.390625 -4.65625 "/></g></g></g><g fill="#e6e6e6" fill-opacity="1"><g transform="translate(97.614393, 222.295591)"><g><path d="M 4.984375 0 L 1.875 0 L 3.75 -9.046875 L 1.234375 -9.046875 L 1.78125 -11.609375 L 9.953125 -11.609375 L 9.390625 -9.046875 L 6.859375 -9.046875 Z M 4.984375 0 "/></g></g></g><g fill="#e6e6e6" fill-opacity="1"><g transform="translate(106.589078, 222.295591)"><g><path d="M 7.15625 0 L 0.265625 0 L 2.71875 -11.609375 L 9.609375 -11.609375 L 9.09375 -9.09375 L 5.3125 -9.09375 L 4.9375 -7.265625 L 8.453125 -7.265625 L 7.890625 -4.75 L 4.359375 -4.75 L 3.90625 -2.5625 L 7.703125 -2.5625 Z M 7.15625 0 "/></g></g></g><g fill="#e6e6e6" fill-opacity="1"><g transform="translate(115.73055, 222.295591)"><g/></g></g><g fill="#e6e6e6" fill-opacity="1"><g transform="translate(119.9558, 222.295591)"><g><path d="M 5.21875 -7.3125 L 7.703125 -11.609375 L 11.15625 -11.609375 L 6.296875 -4.5 L 5.34375 0 L 2.234375 0 L 3.1875 -4.5 L 1.296875 -11.609375 L 4.5 -11.609375 Z M 5.21875 -7.3125 "/></g></g></g><g fill="#e6e6e6" fill-opacity="1"><g transform="translate(129.7803, 222.295591)"><g><path d="M 7.125 -11.796875 C 8.5 -11.796875 9.566406 -11.398438 10.328125 -10.609375 C 11.097656 -9.828125 11.484375 -8.734375 11.484375 -7.328125 C 11.484375 -5.910156 11.21875 -4.617188 10.6875 -3.453125 C 10.164062 -2.285156 9.441406 -1.390625 8.515625 -0.765625 C 7.585938 -0.148438 6.515625 0.15625 5.296875 0.15625 C 3.867188 0.15625 2.765625 -0.234375 1.984375 -1.015625 C 1.210938 -1.804688 0.828125 -2.90625 0.828125 -4.3125 C 0.828125 -5.71875 1.097656 -7.003906 1.640625 -8.171875 C 2.191406 -9.347656 2.9375 -10.242188 3.875 -10.859375 C 4.8125 -11.484375 5.894531 -11.796875 7.125 -11.796875 Z M 8.34375 -7.296875 C 8.34375 -7.898438 8.210938 -8.367188 7.953125 -8.703125 C 7.703125 -9.046875 7.335938 -9.21875 6.859375 -9.21875 C 6.335938 -9.21875 5.851562 -8.992188 5.40625 -8.546875 C 4.96875 -8.109375 4.617188 -7.5 4.359375 -6.71875 C 4.097656 -5.9375 3.96875 -5.140625 3.96875 -4.328125 C 3.96875 -3.046875 4.5 -2.40625 5.5625 -2.40625 C 6.0625 -2.40625 6.523438 -2.625 6.953125 -3.0625 C 7.390625 -3.5 7.726562 -4.09375 7.96875 -4.84375 C 8.21875 -5.59375 8.34375 -6.410156 8.34375 -7.296875 Z M 8.34375 -7.296875 "/></g></g></g><g fill="#e6e6e6" fill-opacity="1"><g transform="translate(141.765079, 222.295591)"><g><path d="M 11.515625 -11.609375 L 9.9375 -4.203125 C 9.625 -2.722656 9.023438 -1.625 8.140625 -0.90625 C 7.265625 -0.195312 6.070312 0.15625 4.5625 0.15625 C 3.851562 0.15625 3.226562 0.0078125 2.6875 -0.28125 C 2.144531 -0.570312 1.726562 -0.976562 1.4375 -1.5 C 1.144531 -2.019531 1 -2.601562 1 -3.25 C 1 -3.59375 1.03125 -3.9375 1.09375 -4.28125 L 2.671875 -11.609375 L 5.78125 -11.609375 L 4.21875 -4.359375 C 4.144531 -3.992188 4.109375 -3.691406 4.109375 -3.453125 C 4.109375 -2.773438 4.429688 -2.4375 5.078125 -2.4375 C 5.578125 -2.4375 5.96875 -2.609375 6.25 -2.953125 C 6.53125 -3.296875 6.742188 -3.816406 6.890625 -4.515625 L 8.40625 -11.609375 Z M 11.515625 -11.609375 "/></g></g></g><g fill="#e6e6e6" fill-opacity="1"><g transform="translate(153.170077, 222.295591)"><g><path d="M 4.265625 -4.21875 L 3.375 0 L 0.265625 0 L 2.71875 -11.609375 L 5.796875 -11.609375 C 7.128906 -11.609375 8.148438 -11.34375 8.859375 -10.8125 C 9.566406 -10.28125 9.921875 -9.484375 9.921875 -8.421875 C 9.921875 -7.597656 9.734375 -6.878906 9.359375 -6.265625 C 8.984375 -5.648438 8.425781 -5.179688 7.6875 -4.859375 L 9.453125 -0.765625 L 9.78125 0 L 6.390625 0 L 4.84375 -4.21875 Z M 4.765625 -6.578125 L 5.171875 -6.578125 C 5.671875 -6.578125 6.066406 -6.722656 6.359375 -7.015625 C 6.660156 -7.304688 6.8125 -7.710938 6.8125 -8.234375 C 6.8125 -8.554688 6.71875 -8.800781 6.53125 -8.96875 C 6.351562 -9.144531 6.09375 -9.234375 5.75 -9.234375 L 5.328125 -9.234375 Z M 4.765625 -6.578125 "/></g></g></g><g fill="#e6e6e6" fill-opacity="1"><g transform="translate(163.741144, 222.295591)"><g/></g></g><g fill="#e6e6e6" fill-opacity="1"><g transform="translate(167.966394, 222.295591)"><g><path d="M 10.625 -7.21875 C 10.625 -5.738281 10.359375 -4.453125 9.828125 -3.359375 C 9.304688 -2.273438 8.546875 -1.441406 7.546875 -0.859375 C 6.546875 -0.285156 5.363281 0 4 0 L 0.265625 0 L 2.71875 -11.609375 L 6.015625 -11.609375 C 7.484375 -11.609375 8.617188 -11.222656 9.421875 -10.453125 C 10.222656 -9.691406 10.625 -8.613281 10.625 -7.21875 Z M 4.46875 -2.578125 C 5.050781 -2.578125 5.570312 -2.757812 6.03125 -3.125 C 6.488281 -3.5 6.84375 -4.03125 7.09375 -4.71875 C 7.351562 -5.40625 7.484375 -6.1875 7.484375 -7.0625 C 7.484375 -7.71875 7.335938 -8.21875 7.046875 -8.5625 C 6.765625 -8.90625 6.367188 -9.078125 5.859375 -9.078125 L 5.296875 -9.078125 L 3.921875 -2.578125 Z M 4.46875 -2.578125 "/></g></g></g><g fill="#e6e6e6" fill-opacity="1"><g transform="translate(179.093415, 222.295591)"><g><path d="M 4.265625 -4.21875 L 3.375 0 L 0.265625 0 L 2.71875 -11.609375 L 5.796875 -11.609375 C 7.128906 -11.609375 8.148438 -11.34375 8.859375 -10.8125 C 9.566406 -10.28125 9.921875 -9.484375 9.921875 -8.421875 C 9.921875 -7.597656 9.734375 -6.878906 9.359375 -6.265625 C 8.984375 -5.648438 8.425781 -5.179688 7.6875 -4.859375 L 9.453125 -0.765625 L 9.78125 0 L 6.390625 0 L 4.84375 -4.21875 Z M 4.765625 -6.578125 L 5.171875 -6.578125 C 5.671875 -6.578125 6.066406 -6.722656 6.359375 -7.015625 C 6.660156 -7.304688 6.8125 -7.710938 6.8125 -8.234375 C 6.8125 -8.554688 6.71875 -8.800781 6.53125 -8.96875 C 6.351562 -9.144531 6.09375 -9.234375 5.75 -9.234375 L 5.328125 -9.234375 Z M 4.765625 -6.578125 "/></g></g></g><g fill="#e6e6e6" fill-opacity="1"><g transform="translate(189.664482, 222.295591)"><g><path d="M 0.25 0 L 2.703125 -11.609375 L 5.859375 -11.609375 L 3.40625 0 Z M 0.25 0 "/></g></g></g><g fill="#e6e6e6" fill-opacity="1"><g transform="translate(195.438461, 222.295591)"><g><path d="M 7.953125 -11.609375 L 11.234375 -11.609375 L 5.484375 0 L 2.015625 0 L 1.1875 -11.609375 L 4.21875 -11.609375 L 4.4375 -5.25 L 4.4375 -4.84375 C 4.4375 -4.082031 4.394531 -3.40625 4.3125 -2.8125 L 4.375 -2.8125 C 4.445312 -3.144531 4.5625 -3.5625 4.71875 -4.0625 C 4.882812 -4.5625 5.035156 -4.945312 5.171875 -5.21875 Z M 7.953125 -11.609375 "/></g></g></g><g fill="#e6e6e6" fill-opacity="1"><g transform="translate(205.477401, 222.295591)"><g><path d="M 0.25 0 L 2.703125 -11.609375 L 5.859375 -11.609375 L 3.40625 0 Z M 0.25 0 "/></g></g></g><g fill="#e6e6e6" fill-opacity="1"><g transform="translate(211.251379, 222.295591)"><g><path d="M 10.46875 0 L 6.859375 0 L 4.5625 -8.171875 L 4.5 -8.171875 C 4.34375 -6.628906 4.191406 -5.519531 4.046875 -4.84375 L 3.03125 0 L 0.265625 0 L 2.71875 -11.609375 L 6.328125 -11.609375 L 8.59375 -3.796875 L 8.671875 -3.796875 C 8.828125 -5.046875 8.976562 -6.03125 9.125 -6.75 L 10.171875 -11.609375 L 12.9375 -11.609375 Z M 10.46875 0 "/></g></g></g><g fill="#e6e6e6" fill-opacity="1"><g transform="translate(224.101858, 222.295591)"><g><path d="M 5.8125 -6.796875 L 10.65625 -6.796875 L 9.328125 -0.484375 C 8.003906 -0.0546875 6.625 0.15625 5.1875 0.15625 C 3.800781 0.15625 2.726562 -0.242188 1.96875 -1.046875 C 1.207031 -1.847656 0.828125 -2.988281 0.828125 -4.46875 C 0.828125 -5.882812 1.117188 -7.160156 1.703125 -8.296875 C 2.285156 -9.429688 3.082031 -10.296875 4.09375 -10.890625 C 5.101562 -11.492188 6.28125 -11.796875 7.625 -11.796875 C 9.039062 -11.796875 10.226562 -11.507812 11.1875 -10.9375 L 10.015625 -8.484375 C 9.210938 -8.960938 8.40625 -9.203125 7.59375 -9.203125 C 6.894531 -9.203125 6.273438 -9.007812 5.734375 -8.625 C 5.203125 -8.238281 4.773438 -7.671875 4.453125 -6.921875 C 4.128906 -6.171875 3.96875 -5.367188 3.96875 -4.515625 C 3.96875 -3.117188 4.519531 -2.421875 5.625 -2.421875 C 5.957031 -2.421875 6.3125 -2.457031 6.6875 -2.53125 L 7.09375 -4.375 L 5.28125 -4.375 Z M 5.8125 -6.796875 "/></g></g></g><g fill="#e6e6e6" fill-opacity="1"><g transform="translate(235.459202, 222.295591)"><g/></g></g><g fill="#e6e6e6" fill-opacity="1"><g transform="translate(239.684452, 222.295591)"><g><path d="M 7.15625 0 L 0.265625 0 L 2.71875 -11.609375 L 9.609375 -11.609375 L 9.09375 -9.09375 L 5.3125 -9.09375 L 4.9375 -7.265625 L 8.453125 -7.265625 L 7.890625 -4.75 L 4.359375 -4.75 L 3.90625 -2.5625 L 7.703125 -2.5625 Z M 7.15625 0 "/></g></g></g><g fill="#e6e6e6" fill-opacity="1"><g transform="translate(248.825924, 222.295591)"><g><path d="M 9.8125 0 L 6.375 0 L 5.21875 -3.953125 L 2.53125 0 L -1 0 L 3.484375 -6.15625 L 1.703125 -11.609375 L 5.015625 -11.609375 L 5.984375 -7.890625 L 8.4375 -11.609375 L 12 -11.609375 L 7.734375 -5.859375 Z M 9.8125 0 "/></g></g></g><g fill="#e6e6e6" fill-opacity="1"><g transform="translate(259.61143, 222.295591)"><g><path d="M 9.9375 -8.140625 C 9.9375 -6.796875 9.484375 -5.742188 8.578125 -4.984375 C 7.671875 -4.234375 6.425781 -3.859375 4.84375 -3.859375 L 4.15625 -3.859375 L 3.375 0 L 0.265625 0 L 2.71875 -11.609375 L 5.671875 -11.609375 C 7.046875 -11.609375 8.097656 -11.304688 8.828125 -10.703125 C 9.566406 -10.109375 9.9375 -9.253906 9.9375 -8.140625 Z M 4.71875 -6.390625 L 5.21875 -6.390625 C 5.695312 -6.390625 6.082031 -6.546875 6.375 -6.859375 C 6.675781 -7.171875 6.828125 -7.5625 6.828125 -8.03125 C 6.828125 -8.34375 6.734375 -8.59375 6.546875 -8.78125 C 6.359375 -8.976562 6.097656 -9.078125 5.765625 -9.078125 L 5.296875 -9.078125 Z M 4.71875 -6.390625 "/></g></g></g><g fill="#e6e6e6" fill-opacity="1"><g transform="translate(269.745676, 222.295591)"><g><path d="M 7.15625 0 L 0.265625 0 L 2.71875 -11.609375 L 9.609375 -11.609375 L 9.09375 -9.09375 L 5.3125 -9.09375 L 4.9375 -7.265625 L 8.453125 -7.265625 L 7.890625 -4.75 L 4.359375 -4.75 L 3.90625 -2.5625 L 7.703125 -2.5625 Z M 7.15625 0 "/></g></g></g><g fill="#e6e6e6" fill-opacity="1"><g transform="translate(278.887148, 222.295591)"><g><path d="M 4.265625 -4.21875 L 3.375 0 L 0.265625 0 L 2.71875 -11.609375 L 5.796875 -11.609375 C 7.128906 -11.609375 8.148438 -11.34375 8.859375 -10.8125 C 9.566406 -10.28125 9.921875 -9.484375 9.921875 -8.421875 C 9.921875 -7.597656 9.734375 -6.878906 9.359375 -6.265625 C 8.984375 -5.648438 8.425781 -5.179688 7.6875 -4.859375 L 9.453125 -0.765625 L 9.78125 0 L 6.390625 0 L 4.84375 -4.21875 Z M 4.765625 -6.578125 L 5.171875 -6.578125 C 5.671875 -6.578125 6.066406 -6.722656 6.359375 -7.015625 C 6.660156 -7.304688 6.8125 -7.710938 6.8125 -8.234375 C 6.8125 -8.554688 6.71875 -8.800781 6.53125 -8.96875 C 6.351562 -9.144531 6.09375 -9.234375 5.75 -9.234375 L 5.328125 -9.234375 Z M 4.765625 -6.578125 "/></g></g></g><g fill="#e6e6e6" fill-opacity="1"><g transform="translate(289.458215, 222.295591)"><g><path d="M 0.25 0 L 2.703125 -11.609375 L 5.859375 -11.609375 L 3.40625 0 Z M 0.25 0 "/></g></g></g><g fill="#e6e6e6" fill-opacity="1"><g transform="translate(295.232193, 222.295591)"><g><path d="M 7.15625 0 L 0.265625 0 L 2.71875 -11.609375 L 9.609375 -11.609375 L 9.09375 -9.09375 L 5.3125 -9.09375 L 4.9375 -7.265625 L 8.453125 -7.265625 L 7.890625 -4.75 L 4.359375 -4.75 L 3.90625 -2.5625 L 7.703125 -2.5625 Z M 7.15625 0 "/></g></g></g><g fill="#e6e6e6" fill-opacity="1"><g transform="translate(304.373665, 222.295591)"><g><path d="M 10.46875 0 L 6.859375 0 L 4.5625 -8.171875 L 4.5 -8.171875 C 4.34375 -6.628906 4.191406 -5.519531 4.046875 -4.84375 L 3.03125 0 L 0.265625 0 L 2.71875 -11.609375 L 6.328125 -11.609375 L 8.59375 -3.796875 L 8.671875 -3.796875 C 8.828125 -5.046875 8.976562 -6.03125 9.125 -6.75 L 10.171875 -11.609375 L 12.9375 -11.609375 Z M 10.46875 0 "/></g></g></g><g fill="#e6e6e6" fill-opacity="1"><g transform="translate(317.224143, 222.295591)"><g><path d="M 7 -9.203125 C 6.425781 -9.203125 5.90625 -8.992188 5.4375 -8.578125 C 4.976562 -8.171875 4.617188 -7.601562 4.359375 -6.875 C 4.097656 -6.15625 3.96875 -5.367188 3.96875 -4.515625 C 3.96875 -3.804688 4.113281 -3.273438 4.40625 -2.921875 C 4.707031 -2.578125 5.132812 -2.40625 5.6875 -2.40625 C 6.132812 -2.40625 6.582031 -2.457031 7.03125 -2.5625 C 7.476562 -2.675781 8.007812 -2.863281 8.625 -3.125 L 8.625 -0.5625 C 7.539062 -0.0820312 6.375 0.15625 5.125 0.15625 C 3.75 0.15625 2.6875 -0.234375 1.9375 -1.015625 C 1.195312 -1.804688 0.828125 -2.921875 0.828125 -4.359375 C 0.828125 -5.765625 1.09375 -7.054688 1.625 -8.234375 C 2.164062 -9.410156 2.894531 -10.296875 3.8125 -10.890625 C 4.738281 -11.492188 5.800781 -11.796875 7 -11.796875 C 8.40625 -11.796875 9.675781 -11.445312 10.8125 -10.75 L 9.640625 -8.328125 C 9.148438 -8.617188 8.695312 -8.835938 8.28125 -8.984375 C 7.875 -9.128906 7.445312 -9.203125 7 -9.203125 Z M 7 -9.203125 "/></g></g></g><g fill="#e6e6e6" fill-opacity="1"><g transform="translate(327.46958, 222.295591)"><g><path d="M 7.15625 0 L 0.265625 0 L 2.71875 -11.609375 L 9.609375 -11.609375 L 9.09375 -9.09375 L 5.3125 -9.09375 L 4.9375 -7.265625 L 8.453125 -7.265625 L 7.890625 -4.75 L 4.359375 -4.75 L 3.90625 -2.5625 L 7.703125 -2.5625 Z M 7.15625 0 "/></g></g></g><g fill="#e6e6e6" fill-opacity="1"><g transform="translate(336.611051, 222.295591)"><g><path d="M 4.734375 -11.609375 L 3.484375 -7.421875 L 1.453125 -7.421875 L 2.015625 -11.609375 Z M 8.25 -11.609375 L 7 -7.421875 L 4.953125 -7.421875 L 5.53125 -11.609375 Z M 8.25 -11.609375 "/></g></g></g></svg>